<?xml version="1.0" standalone="no"?>
<!DOCTYPE svg PUBLIC "-//W3C//DTD SVG 20010904//EN"
 "http://www.w3.org/TR/2001/REC-SVG-20010904/DTD/svg10.dtd">
<svg version="1.0" xmlns="http://www.w3.org/2000/svg"
 width="1280.000000pt" height="1264.000000pt" viewBox="0 0 1280.000000 1264.000000"
 preserveAspectRatio="xMidYMid meet">

<g transform="translate(0.000000,1264.000000) scale(0.100000,-0.100000)"
fill="#000000" stroke="none">
<path d="M6175 12150 c-27 -5 -78 -9 -112 -9 -34 -1 -83 -5 -110 -10 -26 -6
-100 -17 -163 -26 -63 -9 -131 -21 -150 -25 -19 -5 -64 -17 -100 -26 -36 -9
-77 -18 -93 -21 -15 -3 -30 -9 -33 -14 -3 -5 -18 -9 -33 -9 -15 0 -31 -3 -34
-7 -8 -8 -147 -53 -147 -47 0 2 -16 -5 -35 -16 -20 -11 -44 -20 -55 -20 -11 0
-20 -4 -20 -10 0 -5 -8 -10 -18 -10 -9 0 -53 -17 -97 -39 -44 -21 -101 -48
-127 -60 -27 -12 -48 -26 -48 -31 0 -5 -7 -7 -15 -4 -8 4 -15 1 -15 -5 0 -17
22 -13 50 9 14 11 30 20 36 20 16 0 64 24 64 33 0 4 7 7 15 7 8 0 23 4 33 10
22 12 71 32 147 60 64 23 84 31 128 49 15 6 36 11 47 11 10 0 20 3 22 8 3 8
133 42 161 42 9 0 17 5 17 10 0 6 15 10 33 10 18 0 37 4 43 10 5 5 27 10 49
11 22 1 45 6 50 9 6 4 33 10 60 14 28 3 75 10 105 16 85 16 96 18 245 30 256
22 587 15 789 -15 55 -8 118 -15 140 -15 23 0 50 -7 60 -15 10 -8 23 -12 28
-9 5 4 28 1 51 -4 23 -6 70 -16 105 -23 34 -7 62 -17 62 -21 0 -4 11 -8 24 -8
13 0 72 -16 130 -35 59 -19 114 -35 122 -35 8 0 22 -4 32 -9 22 -11 54 -24
127 -51 53 -20 103 -42 195 -84 14 -6 27 -13 30 -16 3 -3 16 -10 30 -16 14 -6
50 -23 80 -38 30 -14 61 -26 68 -26 6 0 12 -4 12 -8 0 -5 12 -15 28 -22 15 -8
39 -22 53 -31 14 -10 37 -21 52 -24 15 -4 27 -11 27 -16 0 -5 7 -9 15 -9 8 0
15 -4 15 -10 0 -5 6 -10 14 -10 8 0 16 -3 18 -7 5 -13 86 -73 97 -73 6 0 11
-5 11 -11 0 -5 5 -7 10 -4 6 3 10 -1 10 -10 0 -10 -5 -13 -12 -9 -7 4 -10 3
-5 -1 12 -13 47 -13 47 0 0 6 -11 18 -25 25 -14 7 -25 17 -25 22 0 4 -6 8 -14
8 -8 0 -16 4 -18 8 -9 22 -257 172 -415 251 -67 34 -124 61 -127 61 -3 0 -31
12 -63 26 -32 14 -68 30 -80 35 -52 20 -74 29 -95 38 -13 5 -48 17 -78 26 -30
9 -64 20 -75 25 -11 4 -40 13 -65 20 -25 7 -55 16 -68 21 -13 5 -34 9 -47 9
-13 0 -27 5 -30 10 -3 6 -19 10 -35 10 -16 0 -31 4 -34 9 -3 5 -23 11 -43 14
-21 3 -94 15 -163 26 -198 33 -246 39 -395 51 -156 12 -393 11 -470 0z"/>
<path d="M6858 12073 c12 -2 22 -9 22 -14 0 -5 9 -9 21 -9 38 0 13 25 -27 27
-21 0 -29 -1 -16 -4z"/>
<path d="M6053 11761 c-50 -9 -95 -19 -99 -24 -4 -4 -13 -7 -20 -7 -7 0 -39
-15 -72 -34 -33 -19 -63 -32 -66 -28 -3 3 -6 0 -6 -6 0 -7 -5 -12 -12 -12 -6
0 -27 -12 -46 -27 -20 -15 -59 -43 -88 -62 -134 -91 -392 -348 -432 -430 -8
-17 -28 -42 -43 -56 -16 -13 -29 -31 -29 -39 0 -9 -9 -25 -20 -36 -11 -11 -20
-24 -20 -28 0 -5 -8 -17 -17 -28 -10 -10 -31 -44 -47 -74 -16 -30 -37 -66 -46
-80 -9 -14 -22 -40 -29 -57 -8 -18 -17 -33 -22 -33 -5 0 -9 -9 -9 -20 0 -11
-4 -20 -9 -20 -5 0 -11 -8 -15 -17 -24 -68 -24 -71 -2 -81 32 -15 79 -23 201
-33 61 -4 153 -13 205 -19 52 -6 135 -14 184 -18 l90 -7 -57 -28 c-32 -15 -62
-25 -67 -22 -5 3 -12 1 -15 -5 -10 -17 -159 -85 -245 -112 -10 -3 -197 14
-255 23 -33 6 -81 11 -108 12 -47 2 -47 2 -68 -43 -12 -25 -22 -49 -23 -55
-10 -55 -55 -155 -70 -155 -6 -1 -56 -23 -111 -50 -80 -39 -101 -45 -103 -33
-2 9 1 25 6 37 6 11 13 32 16 46 30 137 42 168 62 152 5 -4 2 1 -5 11 -12 15
-12 20 0 35 8 9 14 24 13 32 -1 8 -2 21 -3 28 0 6 -12 12 -26 12 -14 0 -25 5
-25 10 0 6 -36 10 -89 10 -50 0 -93 5 -96 10 -3 6 -23 10 -43 10 -20 0 -91 9
-157 20 -66 11 -139 20 -163 20 -30 0 -41 4 -36 12 5 8 -3 9 -30 5 -21 -3 -61
-2 -88 3 -60 12 -78 4 -109 -47 -13 -21 -44 -69 -68 -108 -25 -38 -46 -72 -46
-75 0 -3 -6 -14 -13 -25 -26 -41 -148 -282 -162 -320 -4 -11 -12 -31 -18 -45
-6 -14 -18 -47 -28 -75 -10 -27 -24 -60 -32 -72 -8 -13 -11 -23 -7 -23 4 0 3
-6 -2 -12 -6 -7 -13 -26 -17 -43 -9 -39 -36 -135 -46 -160 -16 -43 -31 -94
-29 -102 1 -4 0 -15 -3 -23 -3 -8 -11 -55 -18 -105 -6 -49 -16 -108 -22 -130
-6 -22 -12 -58 -13 -80 -2 -22 -7 -77 -11 -122 -5 -61 -3 -87 6 -98 11 -13 80
-15 544 -15 311 0 537 4 546 10 11 6 16 39 22 122 4 62 12 151 18 198 7 47 13
117 15 155 4 78 9 81 73 45 17 -11 39 -17 47 -14 8 4 15 1 15 -4 0 -6 16 -16
35 -23 37 -14 51 -34 36 -53 -7 -10 -18 -143 -26 -341 -4 -101 -23 -95 284
-95 l268 0 6 -77 c4 -43 9 -91 13 -108 l6 -30 -260 3 c-155 2 -270 -1 -285 -7
-44 -17 -45 -27 -12 -411 4 -43 22 -184 35 -265 19 -124 30 -182 51 -260 11
-44 25 -102 31 -130 5 -27 22 -88 38 -135 15 -47 33 -105 40 -130 7 -25 16
-54 20 -65 5 -11 18 -46 30 -77 12 -32 27 -55 32 -52 6 4 8 -2 3 -15 -3 -12
-2 -21 4 -21 5 0 11 8 13 17 3 14 17 17 93 18 50 1 106 5 125 8 46 9 170 14
170 8 0 -3 -12 -16 -27 -28 -21 -19 -29 -21 -42 -10 -14 11 -14 10 -2 -5 11
-15 10 -19 -13 -29 -14 -7 -26 -16 -26 -20 0 -4 -16 -13 -35 -20 -19 -7 -35
-17 -35 -21 0 -4 -6 -8 -14 -8 -8 0 -16 -6 -19 -14 -3 -8 -19 -17 -36 -21 -16
-3 -35 -13 -42 -21 -6 -8 -20 -14 -30 -14 -11 0 -19 -4 -19 -8 0 -15 -107 -65
-123 -59 -10 4 -14 1 -11 -7 3 -7 -7 -18 -21 -24 -23 -11 -27 -9 -37 16 -6 15
-10 31 -9 36 1 5 -4 4 -13 -3 -10 -8 -16 -9 -21 -1 -3 6 -10 8 -15 5 -5 -3
-44 -8 -87 -11 -43 -3 -100 -9 -128 -14 -27 -5 -68 -8 -90 -6 -22 1 -44 -1
-50 -5 -5 -4 -57 -13 -115 -19 -58 -7 -112 -16 -121 -20 -8 -5 -43 -10 -77
-12 -58 -3 -74 -9 -53 -22 5 -4 40 -1 78 5 89 14 180 27 273 40 41 5 113 14
160 21 47 6 119 11 160 12 77 1 83 -2 103 -58 2 -5 16 -2 33 6 137 72 213 113
236 129 14 11 29 19 33 19 9 0 152 87 171 103 7 7 40 35 73 62 33 28 60 54 60
58 1 5 -5 5 -11 0 -7 -4 -74 -11 -148 -15 -74 -3 -176 -10 -226 -13 l-91 -8
-11 29 c-24 60 -82 249 -82 265 0 10 -4 20 -9 23 -5 3 -11 20 -14 38 -9 54
-18 92 -27 113 -5 11 -11 34 -15 50 -3 17 -10 49 -16 73 -58 262 -101 602
-103 812 l-1 95 291 3 291 2 -9 48 c-5 26 -11 82 -15 125 l-6 78 -276 -1 -276
-1 0 73 c0 70 18 272 31 350 l6 36 -98 47 c-55 25 -107 50 -116 56 -31 16 -36
10 -42 -43 -3 -29 -10 -96 -16 -148 -6 -52 -14 -156 -18 -230 l-7 -135 -539
-3 -539 -2 7 87 c19 231 61 451 132 683 26 85 32 103 52 150 5 14 27 68 48
120 20 52 46 110 56 128 10 18 18 39 18 46 0 8 4 16 8 18 4 2 20 28 35 58 40
81 125 230 137 240 3 3 21 29 40 59 l33 53 71 -6 c39 -3 103 -10 141 -16 39
-5 106 -14 150 -20 44 -5 112 -14 150 -19 39 -5 111 -14 160 -20 128 -15 138
-19 130 -39 -15 -36 -53 -149 -65 -192 -7 -25 -16 -55 -21 -68 -5 -13 -9 -32
-9 -43 0 -10 -5 -28 -12 -39 -20 -31 -6 -31 58 0 32 16 75 36 94 43 96 40 131
59 136 75 3 9 10 25 15 34 5 10 9 26 9 36 0 10 4 22 8 28 5 5 15 29 22 54 17
56 39 83 59 73 18 -7 142 -20 294 -29 94 -6 100 -5 162 25 35 17 67 31 71 31
4 0 32 12 63 26 31 14 74 34 96 44 22 10 69 32 105 48 l65 31 -72 0 c-68 1
-287 19 -498 41 -49 5 -116 10 -147 10 -54 0 -58 2 -58 23 0 13 4 27 9 33 5 5
32 54 60 109 28 55 71 132 96 170 25 39 48 77 52 85 3 8 9 17 13 20 5 4 54 68
156 204 41 54 246 255 309 302 191 143 333 216 455 233 47 7 105 16 130 21 37
7 47 6 55 -8 6 -11 8 -189 7 -474 -2 -252 1 -458 5 -458 5 0 14 5 19 10 6 6
66 12 137 13 l127 2 0 451 c0 349 3 454 13 462 8 6 30 7 62 2 28 -5 88 -14
135 -20 47 -6 94 -15 105 -20 54 -21 160 -77 206 -106 28 -19 54 -34 59 -34 5
0 10 -3 12 -8 2 -4 32 -29 68 -56 92 -68 264 -236 340 -332 90 -112 215 -297
250 -369 8 -16 17 -32 20 -35 6 -6 45 -84 60 -120 5 -14 15 -33 22 -42 9 -12
9 -21 2 -28 -6 -6 -77 -17 -160 -26 -196 -20 -463 -44 -491 -44 -37 0 -27 -14
25 -34 26 -10 74 -31 107 -46 116 -53 155 -70 160 -70 2 0 29 -12 60 -26 51
-25 62 -26 148 -20 50 3 133 9 182 12 l90 6 13 -28 c6 -15 12 -34 12 -41 0 -7
5 -13 10 -13 6 0 10 -11 10 -24 0 -14 5 -28 10 -31 6 -3 10 -14 10 -24 0 -23
30 -61 50 -65 8 -2 26 -8 40 -13 14 -6 45 -19 70 -28 61 -23 79 -30 120 -48
40 -18 45 -16 32 10 -5 10 -14 34 -19 53 -6 19 -27 88 -48 152 -22 65 -36 121
-32 124 4 4 60 13 124 21 65 7 159 18 208 24 50 5 122 14 160 19 39 5 108 13
155 18 47 6 99 13 115 17 29 6 32 4 91 -87 33 -51 73 -118 90 -148 16 -30 32
-56 37 -58 4 -2 7 -12 7 -22 0 -10 4 -20 8 -22 8 -3 122 -230 122 -242 0 -4 9
-28 21 -54 32 -71 35 -80 68 -172 42 -121 76 -243 101 -370 28 -141 42 -226
50 -315 6 -55 13 -115 16 -132 l6 -33 -535 0 -536 0 -5 53 c-3 28 -13 138 -22
242 -22 264 -25 295 -29 295 -2 0 -20 -9 -42 -19 -21 -11 -56 -27 -78 -36 -22
-10 -53 -23 -69 -31 -16 -8 -36 -14 -43 -14 -16 0 -16 -16 8 -255 7 -71 13
-152 13 -180 1 -45 -1 -50 -22 -53 -19 -3 -22 -8 -18 -30 3 -15 7 -71 8 -124
3 -84 5 -98 21 -102 17 -4 18 -12 12 -83 -3 -43 -10 -134 -16 -203 -19 -254
-63 -541 -110 -715 -21 -79 -31 -121 -36 -153 -3 -18 -9 -35 -14 -38 -5 -3 -9
-16 -9 -29 0 -13 -4 -27 -10 -30 -5 -3 -10 -17 -10 -31 0 -13 -4 -32 -9 -42
-5 -9 -17 -44 -26 -77 -25 -93 -21 -90 -121 -90 -49 0 -116 4 -149 8 -60 8
-60 8 -101 -30 -73 -68 -104 -93 -112 -93 -5 0 -17 -8 -28 -18 -39 -36 -154
-77 -264 -95 -14 -2 19 -5 74 -6 83 -1 97 1 92 14 -4 10 1 15 15 15 11 0 35
11 53 25 18 14 38 25 44 25 7 0 12 5 12 10 0 6 4 10 10 10 13 0 55 35 99 83
l36 39 146 -7 c155 -8 189 -4 189 23 0 9 7 30 15 46 8 16 18 46 21 68 4 21 11
41 15 44 5 3 9 16 9 30 0 13 5 24 10 24 6 0 10 16 10 35 0 19 4 35 9 35 4 0
11 19 14 42 3 24 10 44 16 46 5 2 8 9 5 16 -3 8 4 51 16 97 21 80 32 130 45
209 4 19 10 44 15 55 5 11 11 49 14 85 12 143 19 196 28 207 6 7 7 28 4 47 -4
20 -2 63 3 98 16 97 20 295 7 308 -6 6 -12 30 -14 53 -1 23 -6 70 -10 105 -8
68 -7 72 19 72 16 0 17 10 13 103 -5 123 -21 288 -30 310 -3 10 -1 17 5 17 6
0 11 7 11 15 0 8 -4 15 -10 15 -5 0 -10 6 -10 14 0 13 51 40 66 36 4 -1 10 2
13 7 3 5 34 20 68 35 l61 26 6 -57 c11 -102 27 -284 35 -401 4 -63 8 -110 9
-105 1 6 6 4 10 -3 7 -10 119 -13 543 -12 605 0 565 -6 555 80 -20 159 -26
202 -35 260 -6 36 -13 79 -16 95 -18 117 -82 354 -121 450 -13 33 -24 70 -24
83 0 12 -4 22 -10 22 -5 0 -10 7 -10 15 0 8 -4 24 -10 35 -5 11 -14 29 -20 40
-5 11 -10 27 -10 35 0 8 -3 15 -7 15 -5 0 -19 30 -33 66 -13 36 -30 70 -37 76
-7 6 -13 19 -13 29 0 11 -4 19 -10 19 -5 0 -10 9 -10 20 0 11 -4 20 -8 20 -4
0 -16 20 -26 45 -11 25 -25 50 -32 56 -13 10 -55 77 -94 147 -47 84 -67 93
-161 80 -41 -6 -92 -12 -114 -12 -22 -1 -56 -5 -75 -9 -36 -8 -50 -10 -205
-27 -218 -24 -303 -38 -322 -53 -15 -11 -17 -63 -3 -72 6 -3 10 -18 10 -33 0
-15 9 -44 20 -65 11 -20 18 -37 16 -37 -2 0 4 -24 15 -52 24 -65 24 -67 -1
-61 -11 3 -20 9 -20 14 0 5 -9 9 -21 9 -15 0 -19 5 -15 16 4 10 2 13 -6 7 -18
-10 -48 -11 -48 -1 0 4 -9 8 -20 8 -11 0 -28 4 -38 9 -9 5 -25 12 -34 15 -19
5 -35 40 -69 142 -18 57 -28 73 -48 80 -15 6 -91 4 -195 -5 -126 -10 -171 -11
-174 -2 -2 6 -8 9 -12 6 -5 -3 -17 -1 -27 4 -39 21 -110 51 -120 51 -20 0 -63
27 -55 35 4 5 2 5 -5 2 -6 -4 -34 4 -61 18 -27 14 -55 25 -61 25 -6 0 -11 5
-11 10 0 7 27 10 69 9 38 -1 74 1 80 5 10 7 166 22 336 33 75 4 129 23 139 48
3 8 1 15 -5 15 -6 0 -8 4 -4 9 3 5 -2 16 -10 24 -8 9 -15 18 -15 21 0 8 -41
92 -68 139 -12 21 -22 44 -22 52 0 8 -3 15 -8 15 -4 0 -18 18 -32 40 -14 22
-29 40 -34 40 -4 0 -6 9 -3 20 3 11 1 18 -4 15 -5 -4 -17 9 -28 27 -11 18 -25
38 -30 45 -6 7 -11 19 -11 28 0 9 -4 14 -8 11 -5 -3 -15 7 -23 22 -8 15 -21
34 -29 42 -8 8 -27 31 -41 50 -15 19 -41 49 -58 65 -17 17 -31 36 -31 43 0 7
-4 11 -8 8 -12 -7 -42 30 -42 52 0 15 -2 15 -10 2 -8 -13 -11 -11 -16 8 -4 12
-11 22 -16 22 -5 0 -42 29 -81 65 -39 36 -77 65 -85 65 -8 0 -12 6 -9 14 4 9
-3 16 -19 20 -14 4 -46 22 -73 41 -46 34 -177 102 -235 125 -16 6 -50 13 -75
16 -25 3 -70 9 -100 14 -30 6 -78 10 -107 10 -51 0 -52 -1 -57 -32 -4 -18 -6
-219 -6 -447 0 -227 -3 -417 -8 -421 -4 -4 -61 -11 -125 -15 l-117 -6 0 447
c-1 415 -2 447 -18 460 -23 17 -85 16 -200 -5z"/>
<path d="M4740 11739 c0 -5 5 -7 10 -4 6 3 10 8 10 11 0 2 -4 4 -10 4 -5 0
-10 -5 -10 -11z"/>
<path d="M4708 11723 c7 -3 16 -2 19 1 4 3 -2 6 -13 5 -11 0 -14 -3 -6 -6z"/>
<path d="M7545 11690 c-3 -5 1 -10 9 -10 9 0 16 5 16 10 0 6 -4 10 -9 10 -6 0
-13 -4 -16 -10z"/>
<path d="M5260 11633 c-19 -8 -43 -17 -53 -19 -10 -2 -43 -15 -74 -29 -30 -14
-62 -25 -69 -25 -8 0 -14 -4 -14 -10 0 -5 -6 -10 -12 -10 -7 0 -35 -11 -63
-25 -27 -13 -56 -25 -62 -25 -7 0 -13 -4 -13 -8 0 -5 -17 -16 -37 -25 -38 -16
-67 -33 -200 -113 -40 -24 -75 -44 -79 -44 -3 0 -12 -6 -19 -12 -25 -22 -39
-33 -88 -66 -77 -51 -237 -181 -237 -192 0 -6 -7 -10 -15 -10 -8 0 -15 -5 -15
-12 0 -6 -2 -9 -5 -6 -3 2 -51 -42 -108 -99 -56 -56 -108 -103 -115 -103 -7 0
-11 -4 -8 -8 3 -5 -7 -21 -21 -36 -17 -19 -24 -35 -20 -51 2 -14 -1 -26 -7
-29 -6 -2 -3 -5 7 -5 9 -1 17 -4 17 -8 0 -5 21 -9 48 -9 26 -1 92 -6 147 -13
55 -6 130 -14 168 -17 37 -4 67 -10 67 -15 0 -4 10 -7 23 -5 12 1 56 -2 97 -6
41 -5 85 -9 98 -8 12 0 22 -5 22 -11 0 -6 18 11 40 37 22 27 40 54 40 61 0 7
14 39 30 72 24 46 35 59 48 55 14 -5 15 -4 2 5 -12 9 -13 14 -2 28 7 10 17 30
23 46 6 15 15 27 20 27 5 0 9 9 9 20 0 11 8 28 18 38 9 10 26 35 37 57 11 22
25 45 32 52 6 7 15 22 18 33 3 11 11 20 16 20 5 0 9 6 9 13 0 8 9 22 20 32 11
10 20 23 20 29 1 18 60 77 70 71 6 -3 7 1 4 9 -3 9 -1 16 5 16 6 0 11 7 11 16
0 9 5 12 12 8 6 -4 8 -3 5 3 -7 12 132 163 151 163 6 0 12 -4 12 -9 0 -5 -6
-12 -12 -14 -10 -4 -10 -6 -1 -6 17 -1 27 19 15 31 -11 11 -8 17 50 75 35 35
33 55 -2 26 -71 -57 -194 -192 -289 -315 -46 -61 -221 -323 -221 -333 0 -2
-16 -31 -35 -64 -19 -32 -35 -66 -35 -74 0 -9 -3 -17 -7 -19 -5 -1 -29 -43
-54 -93 -52 -102 -33 -94 -179 -74 -174 22 -342 42 -487 55 -54 5 -63 9 -63
26 0 24 267 293 375 377 44 34 87 68 95 74 66 52 149 111 168 120 12 6 22 14
22 19 0 4 4 8 9 8 5 0 38 18 75 40 104 63 226 128 311 165 69 29 129 57 147
66 10 5 27 9 38 9 11 0 20 5 20 10 0 6 8 10 18 11 9 0 40 11 67 24 39 19 44
24 25 24 -14 0 -41 -7 -60 -16z"/>
<path d="M7501 11627 c-24 -24 -14 -44 53 -106 14 -12 24 -27 21 -31 -3 -5 4
-11 15 -15 11 -4 18 -10 15 -15 -3 -5 4 -11 15 -15 11 -3 20 -10 20 -14 0 -5
20 -30 45 -57 25 -26 45 -51 45 -54 0 -3 9 -12 20 -20 11 -8 20 -20 20 -27 0
-6 6 -16 13 -20 17 -10 147 -207 147 -222 0 -6 5 -11 10 -11 6 0 10 -7 10 -15
0 -8 4 -15 8 -15 4 0 13 -12 20 -27 11 -25 30 -60 72 -133 8 -14 15 -27 15
-30 0 -3 8 -16 17 -30 9 -14 22 -43 29 -65 8 -22 20 -46 27 -53 7 -8 10 -18 6
-23 -3 -5 3 -12 13 -16 10 -4 20 -10 23 -14 6 -9 223 11 330 31 30 5 84 12
120 15 171 13 234 23 247 41 22 30 15 49 -37 105 -28 30 -64 69 -80 87 -17 17
-35 32 -40 32 -6 0 -10 5 -10 10 0 11 -32 43 -96 95 -20 17 -46 39 -59 50 -32
28 -50 42 -143 113 -60 45 -79 64 -68 68 9 3 13 10 10 15 -3 5 -13 2 -22 -7
-10 -11 -17 -13 -20 -5 -2 6 -10 11 -18 11 -8 0 -14 5 -14 10 0 6 -5 10 -11
10 -6 0 -39 19 -73 43 -34 24 -76 50 -94 58 -18 8 -32 17 -32 20 0 4 -15 12
-32 20 -18 7 -35 15 -38 18 -3 3 -25 16 -50 27 -25 12 -70 34 -99 48 -30 14
-61 26 -69 26 -7 0 -10 5 -7 10 3 6 -3 10 -15 10 -12 0 -34 7 -51 15 -33 18
-155 58 -181 61 -9 0 -22 -4 -27 -9z m54 -17 c3 -5 17 -10 31 -10 13 0 24 -4
24 -10 0 -5 11 -10 24 -10 14 0 28 -4 31 -10 3 -5 15 -10 26 -10 10 0 19 -4
19 -10 0 -5 7 -10 15 -10 8 0 23 -4 33 -9 9 -5 35 -17 57 -27 75 -32 180 -84
240 -120 33 -19 68 -38 78 -41 9 -3 17 -9 17 -14 0 -5 5 -9 11 -9 10 0 226
-144 239 -159 3 -3 34 -28 70 -56 36 -27 85 -68 110 -90 69 -60 300 -295 300
-305 0 -16 -19 -21 -117 -31 -135 -13 -263 -28 -358 -39 -146 -18 -248 -23
-242 -13 3 5 -1 22 -9 37 -7 16 -14 34 -14 41 0 7 -3 15 -7 17 -5 2 -30 48
-57 103 -28 55 -62 119 -78 142 -15 23 -28 46 -28 52 0 6 -4 11 -10 11 -5 0
-10 5 -10 10 0 10 -82 139 -107 170 -7 8 -30 38 -50 66 -75 102 -151 190 -222
257 -40 37 -69 72 -66 77 8 13 42 13 50 0z"/>
<path d="M7525 11490 c3 -5 11 -10 16 -10 6 0 7 5 4 10 -3 6 -11 10 -16 10 -6
0 -7 -4 -4 -10z"/>
<path d="M4378 11483 c-10 -2 -18 -9 -18 -14 0 -14 16 -11 30 6 7 8 11 14 9
14 -2 -1 -12 -3 -21 -6z"/>
<path d="M7540 11459 c0 -5 5 -7 10 -4 6 3 10 8 10 11 0 2 -4 4 -10 4 -5 0
-10 -5 -10 -11z"/>
<path d="M8420 11460 c0 -5 5 -10 11 -10 5 0 7 5 4 10 -3 6 -8 10 -11 10 -2 0
-4 -4 -4 -10z"/>
<path d="M4720 11430 c0 -5 5 -10 10 -10 6 0 10 5 10 10 0 6 -4 10 -10 10 -5
0 -10 -4 -10 -10z"/>
<path d="M8595 11404 c14 -14 28 -24 31 -22 6 6 -35 48 -47 48 -5 0 2 -12 16
-26z"/>
<path d="M8155 11400 c3 -5 8 -10 11 -10 2 0 4 5 4 10 0 6 -5 10 -11 10 -5 0
-7 -4 -4 -10z"/>
<path d="M8680 11335 c13 -14 27 -25 32 -25 5 0 -2 11 -16 25 -14 14 -28 25
-32 25 -4 0 3 -11 16 -25z"/>
<path d="M7696 11327 c3 -10 9 -15 12 -12 3 3 0 11 -7 18 -10 9 -11 8 -5 -6z"/>
<path d="M8740 11270 c0 -5 5 -10 11 -10 5 0 7 5 4 10 -3 6 -8 10 -11 10 -2 0
-4 -4 -4 -10z"/>
<path d="M8850 11192 c0 -5 7 -15 15 -22 8 -7 15 -9 15 -6 0 4 -7 14 -15 22
-8 9 -15 11 -15 6z"/>
<path d="M3965 11170 c-3 -6 1 -7 9 -4 18 7 21 14 7 14 -6 0 -13 -4 -16 -10z"/>
<path d="M8458 11173 c7 -3 16 -2 19 1 4 3 -2 6 -13 5 -11 0 -14 -3 -6 -6z"/>
<path d="M7820 11144 c8 -10 15 -20 16 -22 1 -2 4 1 7 5 3 5 -4 15 -16 23 -21
12 -21 12 -7 -6z"/>
<path d="M8926 11107 c3 -10 9 -15 12 -12 3 3 0 11 -7 18 -10 9 -11 8 -5 -6z"/>
<path d="M8800 10850 c0 -5 10 -10 23 -10 18 0 19 2 7 10 -19 13 -30 13 -30 0z"/>
<path d="M4808 10803 c7 -3 16 -2 19 1 4 3 -2 6 -13 5 -11 0 -14 -3 -6 -6z"/>
<path d="M9275 10659 c-4 -6 -5 -12 -2 -15 2 -3 7 2 10 11 7 17 1 20 -8 4z"/>
<path d="M8260 10570 c0 -5 7 -10 16 -10 8 0 12 5 9 10 -3 6 -10 10 -16 10 -5
0 -9 -4 -9 -10z"/>
<path d="M8575 10570 c3 -5 8 -10 11 -10 2 0 4 5 4 10 0 6 -5 10 -11 10 -5 0
-7 -4 -4 -10z"/>
<path d="M8950 10540 c-8 -5 -12 -12 -9 -15 4 -3 12 1 19 10 14 17 11 19 -10
5z"/>
<path d="M7600 10400 c0 -5 6 -10 14 -10 8 0 18 5 21 10 3 6 -3 10 -14 10 -12
0 -21 -4 -21 -10z"/>
<path d="M9440 10379 c0 -5 5 -7 10 -4 6 3 10 8 10 11 0 2 -4 4 -10 4 -5 0
-10 -5 -10 -11z"/>
<path d="M8075 10361 c4 -8 2 -17 -6 -22 -9 -6 -10 -9 -2 -9 19 0 27 21 13 33
-10 9 -11 9 -5 -2z"/>
<path d="M8251 10293 c0 -5 4 -17 9 -28 8 -18 9 -17 9 8 1 15 -3 27 -9 27 -5
0 -10 -3 -9 -7z"/>
<path d="M8267 10196 c-5 -12 -3 -22 5 -28 10 -6 10 -8 -2 -8 -13 0 -13 -1 0
-10 22 -14 26 -12 27 10 1 11 -2 20 -7 20 -5 0 -10 8 -12 18 -3 15 -4 15 -11
-2z"/>
<path d="M4500 10085 c0 -8 2 -15 4 -15 2 0 6 7 10 15 3 8 1 15 -4 15 -6 0
-10 -7 -10 -15z"/>
<path d="M9420 10042 c0 -18 5 -32 10 -32 6 0 8 11 4 28 -10 39 -14 40 -14 4z"/>
<path d="M9413 9985 c-3 -9 -3 -19 1 -22 3 -4 6 1 6 10 0 8 6 18 13 20 9 4 9
6 -1 6 -7 1 -15 -6 -19 -14z"/>
<path d="M3161 9974 c0 -11 3 -14 6 -6 3 7 2 16 -1 19 -3 4 -6 -2 -5 -13z"/>
<path d="M3131 9884 c0 -11 3 -14 6 -6 3 7 2 16 -1 19 -3 4 -6 -2 -5 -13z"/>
<path d="M9572 9612 c-11 -25 -11 -25 4 -10 9 9 15 21 13 27 -2 6 -10 -2 -17
-17z"/>
<path d="M3010 9509 c0 -5 5 -7 10 -4 6 3 10 8 10 11 0 2 -4 4 -10 4 -5 0 -10
-5 -10 -11z"/>
<path d="M4340 9285 c0 -10 29 -24 34 -17 3 6 -3 12 -14 15 -11 3 -20 4 -20 2z"/>
<path d="M4395 9280 c3 -5 8 -10 11 -10 2 0 4 5 4 10 0 6 -5 10 -11 10 -5 0
-7 -4 -4 -10z"/>
<path d="M8500 9275 c0 -8 2 -15 4 -15 2 0 6 7 10 15 3 8 1 15 -4 15 -6 0 -10
-7 -10 -15z"/>
<path d="M8370 9220 c0 -5 7 -7 15 -4 8 4 15 8 15 10 0 2 -7 4 -15 4 -8 0 -15
-4 -15 -10z"/>
<path d="M8465 9220 c3 -5 8 -10 11 -10 2 0 4 5 4 10 0 6 -5 10 -11 10 -5 0
-7 -4 -4 -10z"/>
<path d="M8381 8944 c0 -11 3 -14 6 -6 3 7 2 16 -1 19 -3 4 -6 -2 -5 -13z"/>
<path d="M9710 8949 c0 -5 5 -7 10 -4 6 3 10 8 10 11 0 2 -4 4 -10 4 -5 0 -10
-5 -10 -11z"/>
<path d="M9890 8955 c0 -2 9 -9 20 -15 16 -9 20 -8 20 5 0 8 -9 15 -20 15 -11
0 -20 -2 -20 -5z"/>
<path d="M7310 8834 c-189 -15 -376 -37 -545 -64 -38 -6 -92 -15 -120 -19
-178 -28 -364 -60 -425 -71 -57 -12 -152 -29 -210 -40 -246 -44 -478 -87 -537
-101 -23 -5 -61 -9 -83 -9 l-42 0 7 -92 c16 -219 73 -407 167 -545 15 -23 28
-44 28 -48 0 -3 12 -18 26 -33 14 -15 39 -46 55 -69 26 -37 29 -49 29 -121 0
-76 -3 -102 -37 -282 -17 -96 -65 -245 -95 -299 -37 -67 -88 -129 -146 -179
-62 -54 -234 -171 -323 -220 -31 -17 -96 -53 -145 -80 -49 -27 -107 -59 -128
-71 -125 -71 -381 -265 -466 -351 -68 -69 -140 -180 -140 -215 1 -13 26 -39
72 -75 327 -251 686 -441 1068 -566 145 -47 155 -50 240 -68 41 -10 91 -21
110 -26 49 -12 238 -45 335 -57 33 -4 211 -7 395 -7 356 0 432 5 695 53 64 12
258 56 310 71 22 6 52 14 68 17 15 3 30 9 33 14 3 5 14 9 25 9 10 0 27 4 37
10 9 5 37 16 62 24 42 13 130 46 175 65 11 5 100 48 198 96 147 72 177 91 177
109 0 18 -22 85 -59 179 -19 49 -107 170 -163 224 -60 58 -180 149 -236 178
-20 11 -39 22 -42 25 -11 13 -188 92 -379 170 -424 172 -531 255 -531 414 0
59 12 105 39 156 52 97 176 149 358 150 97 0 215 20 262 45 52 27 81 71 81
125 0 46 -4 61 -36 137 -20 44 -17 83 7 109 21 23 26 48 15 75 -5 12 5 28 33
54 l40 38 3 115 c2 90 6 117 18 123 8 5 45 22 83 40 79 37 97 58 97 116 0 39
-7 51 -67 121 -37 42 -70 79 -73 82 -17 15 -80 99 -94 127 -38 75 -48 124 -43
212 3 47 10 106 17 131 6 25 12 59 13 75 2 37 5 37 -213 19z"/>
<path d="M9699 8800 c-30 -32 -34 -43 -10 -30 21 10 38 37 30 44 -2 1 -11 -5
-20 -14z"/>
<path d="M9942 8630 c0 -14 2 -19 5 -12 2 6 2 18 0 25 -3 6 -5 1 -5 -13z"/>
<path d="M3147 8559 c-9 -10 -13 -19 -8 -19 5 0 12 -44 15 -97 12 -195 14
-217 24 -252 6 -20 15 -67 21 -106 6 -38 15 -88 20 -110 5 -22 16 -69 24 -105
9 -36 29 -105 45 -155 21 -63 27 -95 21 -107 -7 -13 -6 -16 3 -13 8 3 21 -17
37 -57 24 -63 52 -128 117 -265 19 -39 34 -75 34 -79 0 -4 11 -22 26 -41 14
-18 22 -33 18 -33 -4 0 0 -8 8 -17 9 -10 19 -28 22 -40 4 -13 11 -23 16 -23 5
0 11 -13 15 -30 4 -16 11 -30 17 -30 6 0 7 -7 4 -16 -3 -8 -2 -12 4 -9 12 7
38 -45 33 -67 -2 -9 1 -20 8 -24 8 -5 11 -1 7 12 -4 17 0 20 31 21 38 2 126
14 226 33 138 25 189 32 430 59 139 15 175 22 175 36 0 10 -7 11 -27 5 -16 -5
-84 -14 -153 -21 -69 -6 -154 -16 -190 -21 -36 -5 -90 -11 -120 -14 -30 -3
-64 -9 -75 -14 -11 -5 -42 -11 -70 -14 -93 -9 -182 -23 -194 -30 -6 -4 -17 -1
-24 6 -20 20 -97 153 -144 248 -15 30 -30 57 -33 60 -14 12 -120 255 -120 276
0 8 -4 14 -8 14 -4 0 -14 21 -21 48 -8 26 -17 52 -21 57 -4 6 -9 19 -12 30 -3
11 -18 61 -33 110 -67 224 -125 560 -125 733 l0 62 534 0 c436 0 535 -2 539
-13 3 -8 6 -75 6 -150 1 -76 4 -143 7 -151 3 -7 9 -55 15 -107 11 -108 24
-200 39 -281 5 -32 14 -82 19 -110 5 -29 11 -62 15 -73 3 -11 12 -51 21 -90 8
-38 20 -87 25 -107 32 -121 49 -183 60 -213 14 -40 42 -121 57 -167 19 -58 29
-61 28 -9 0 21 -3 37 -7 34 -5 -2 -8 4 -8 15 0 10 -3 22 -7 25 -14 15 -42 109
-36 124 4 11 2 14 -5 9 -8 -5 -12 1 -12 18 0 14 -4 28 -10 31 -5 3 -10 14 -10
24 0 10 -8 44 -19 77 -10 32 -24 86 -31 119 -7 33 -19 87 -27 120 -9 33 -15
81 -15 107 0 26 -4 46 -8 43 -4 -3 -10 19 -14 48 -3 28 -11 84 -16 122 -6 39
-13 117 -16 175 -3 58 -10 109 -15 114 -5 6 -9 67 -9 136 0 113 -2 126 -19
137 -15 9 -152 12 -554 12 -513 -1 -535 -1 -550 -20z"/>
<path d="M8594 8568 c-19 -9 -21 -25 -37 -241 -18 -252 -25 -324 -34 -347 -3
-8 -7 -40 -9 -70 -2 -30 -8 -71 -13 -90 -6 -19 -19 -82 -31 -140 -11 -58 -30
-143 -41 -190 -11 -47 -23 -100 -26 -118 -3 -18 -9 -35 -14 -38 -5 -3 -9 -16
-9 -30 0 -13 -4 -24 -8 -24 -4 0 -9 -13 -10 -28 -1 -16 -15 -66 -30 -113 -39
-119 -39 -122 28 -132 30 -4 87 -12 125 -18 39 -5 108 -13 155 -18 47 -5 144
-18 215 -30 72 -12 152 -24 178 -28 30 -3 43 -9 36 -14 -7 -4 6 -5 30 -2 40 6
83 35 88 61 2 7 23 43 48 82 25 39 45 77 45 84 0 8 4 16 8 18 10 4 85 157 176
360 9 20 16 43 16 51 0 9 4 18 9 21 4 3 14 27 21 53 7 27 16 53 19 58 13 22
78 269 97 365 13 71 33 193 34 215 0 6 4 4 9 -4 5 -8 7 5 4 33 -3 26 0 94 7
152 9 77 9 108 1 118 -9 11 -109 13 -539 14 -323 0 -535 -4 -548 -10z m1069
-43 c-10 -171 -42 -412 -68 -508 -8 -32 -15 -68 -15 -80 0 -13 -4 -27 -8 -33
-5 -5 -14 -34 -21 -64 -13 -55 -74 -247 -90 -285 -5 -11 -16 -37 -25 -57 -38
-90 -52 -119 -104 -228 -31 -63 -59 -117 -62 -120 -3 -3 -15 -25 -27 -50 -13
-25 -34 -63 -48 -85 -13 -22 -29 -50 -34 -62 -17 -37 -5 -37 -226 -3 -33 5
-89 14 -125 20 -104 17 -196 28 -339 42 -108 11 -136 16 -145 31 -7 12 -8 20
-1 25 10 7 21 38 45 122 7 25 16 54 21 65 22 53 103 398 115 490 3 22 9 49 14
60 5 11 11 43 14 70 3 28 10 82 15 120 16 109 40 402 41 482 0 47 4 73 13 76
6 3 248 5 537 4 l525 -2 -2 -30z"/>
<path d="M9700 8410 c0 -5 5 -10 11 -10 5 0 7 5 4 10 -3 6 -8 10 -11 10 -2 0
-4 -4 -4 -10z"/>
<path d="M4400 8399 c0 -5 5 -7 10 -4 6 3 10 8 10 11 0 2 -4 4 -10 4 -5 0 -10
-5 -10 -11z"/>
<path d="M9701 8254 c0 -11 3 -14 6 -6 3 7 2 16 -1 19 -3 4 -6 -2 -5 -13z"/>
<path d="M8351 8224 c0 -11 3 -14 6 -6 3 7 2 16 -1 19 -3 4 -6 -2 -5 -13z"/>
<path d="M4360 7949 c0 -11 5 -17 10 -14 6 3 10 13 10 21 0 8 -4 14 -10 14 -5
0 -10 -9 -10 -21z"/>
<path d="M8316 7917 c3 -10 9 -15 12 -12 3 3 0 11 -7 18 -10 9 -11 8 -5 -6z"/>
<path d="M4371 7880 c0 -14 4 -34 8 -44 7 -19 8 -18 14 4 3 13 0 32 -9 44 -14
20 -14 20 -13 -4z"/>
<path d="M3016 7762 c-3 -5 1 -9 9 -9 8 0 12 4 9 9 -3 4 -7 8 -9 8 -2 0 -6 -4
-9 -8z"/>
<path d="M9535 7611 c-3 -5 -1 -12 5 -16 5 -3 10 1 10 9 0 18 -6 21 -15 7z"/>
<path d="M4565 7560 c3 -5 8 -10 11 -10 2 0 4 5 4 10 0 6 -5 10 -11 10 -5 0
-7 -4 -4 -10z"/>
<path d="M8201 7304 c0 -11 3 -14 6 -6 3 7 2 16 -1 19 -3 4 -6 -2 -5 -13z"/>
<path d="M9617 7203 c-4 -3 -7 -11 -7 -17 0 -6 5 -5 12 2 6 6 9 14 7 17 -3 3
-9 2 -12 -2z"/>
<path d="M8291 7144 c0 -11 3 -14 6 -6 3 7 2 16 -1 19 -3 4 -6 -2 -5 -13z"/>
<path d="M3531 7064 c0 -11 3 -14 6 -6 3 7 2 16 -1 19 -3 4 -6 -2 -5 -13z"/>
<path d="M3340 6954 c0 -8 5 -12 10 -9 6 4 8 11 5 16 -9 14 -15 11 -15 -7z"/>
<path d="M9005 6880 c3 -5 8 -10 11 -10 2 0 4 5 4 10 0 6 -5 10 -11 10 -5 0
-7 -4 -4 -10z"/>
<path d="M4641 6834 c0 -11 3 -14 6 -6 3 7 2 16 -1 19 -3 4 -6 -2 -5 -13z"/>
<path d="M7500 6843 c0 -6 55 -13 123 -17 270 -14 322 -19 329 -29 3 -6 -1
-26 -9 -46 -22 -49 -81 -175 -109 -233 l-24 -46 53 -31 c78 -47 137 -91 137
-103 0 -6 6 -6 15 2 8 7 15 16 15 20 0 5 16 36 35 70 19 34 35 68 35 75 0 7 4
15 8 17 12 5 58 105 112 244 7 19 13 20 76 12 234 -26 371 -44 474 -59 47 -7
104 -13 128 -13 56 -1 65 -26 25 -70 -16 -17 -41 -47 -55 -66 -48 -64 -207
-230 -279 -291 -30 -26 -77 -68 -105 -95 -44 -43 -80 -72 -183 -152 l-24 -19
20 -29 c27 -39 113 -215 113 -231 0 -7 5 -13 11 -13 15 0 4 42 -27 104 -13 28
-24 55 -24 62 0 7 -3 14 -7 16 -16 6 -45 77 -39 93 3 9 19 23 36 33 16 9 32
24 35 34 3 9 17 19 30 22 14 4 25 10 25 15 0 5 16 19 35 31 19 12 35 29 35 38
1 15 3 14 16 -3 16 -20 16 -19 9 4 -5 16 -4 21 4 17 6 -4 11 -2 11 4 0 17 49
62 60 55 6 -3 10 -1 10 6 0 14 66 80 73 73 2 -3 7 6 11 19 3 13 17 29 31 37
14 7 25 17 25 21 0 4 17 25 38 46 20 21 48 54 61 73 14 19 26 37 28 39 1 2 10
-2 19 -10 16 -13 16 -12 5 9 -10 18 -9 23 4 28 8 3 15 13 15 21 0 8 4 12 9 8
5 -3 11 5 13 17 2 16 9 22 21 20 9 -2 17 2 17 8 0 5 -9 10 -20 10 -11 0 -23 7
-26 15 -4 8 -18 15 -33 15 -15 0 -52 4 -82 9 -30 5 -90 14 -134 20 -44 6 -143
20 -220 30 -77 11 -169 19 -204 18 -60 -2 -65 -4 -81 -32 -9 -16 -22 -49 -30
-72 -7 -24 -17 -43 -22 -43 -4 0 -8 -6 -8 -12 0 -19 -112 -238 -122 -238 -4 0
-8 -7 -8 -15 0 -21 -6 -19 -40 11 -28 25 -54 43 -90 61 -35 17 -37 27 -16 68
12 22 35 72 50 110 16 39 34 84 41 100 36 85 23 97 -110 102 -49 2 -147 6
-217 9 -78 4 -128 2 -128 -3z"/>
<path d="M4690 6810 c-8 -26 -7 -41 2 -32 6 6 8 16 5 24 -3 7 -6 11 -7 8z"/>
<path d="M4205 6790 c3 -5 8 -10 11 -10 2 0 4 5 4 10 0 6 -5 10 -11 10 -5 0
-7 -4 -4 -10z"/>
<path d="M8655 6780 c3 -5 8 -10 11 -10 2 0 4 5 4 10 0 6 -5 10 -11 10 -5 0
-7 -4 -4 -10z"/>
<path d="M3848 6673 c3 -16 18 -40 34 -55 15 -14 28 -32 28 -39 0 -10 3 -10
12 -1 9 9 5 20 -18 49 -17 21 -33 46 -37 56 -10 27 -25 20 -19 -10z"/>
<path d="M9301 6693 c0 -4 4 -17 9 -28 8 -19 9 -19 9 2 1 12 -3 25 -9 28 -5 3
-10 3 -9 -2z"/>
<path d="M8970 6620 c0 -5 7 -10 16 -10 8 0 12 5 9 10 -3 6 -10 10 -16 10 -5
0 -9 -4 -9 -10z"/>
<path d="M3820 6606 c0 -8 9 -14 19 -13 15 1 17 4 9 14 -14 17 -28 16 -28 -1z"/>
<path d="M3930 6566 c0 -7 11 -25 25 -40 14 -15 25 -29 25 -31 0 -2 32 -35 70
-74 39 -38 70 -72 70 -75 0 -11 -87 -96 -99 -96 -7 0 -11 -6 -8 -14 3 -8 3
-16 -1 -18 -15 -6 -62 -97 -53 -102 5 -3 27 22 50 57 22 34 63 87 90 117 l50
55 -37 39 c-75 80 -155 173 -160 188 -6 13 -22 9 -22 -6z"/>
<path d="M8035 6510 c-3 -5 -1 -10 4 -10 6 0 11 5 11 10 0 6 -2 10 -4 10 -3 0
-8 -4 -11 -10z"/>
<path d="M7890 6491 c0 -5 7 -11 14 -14 10 -4 13 -1 9 9 -6 15 -23 19 -23 5z"/>
<path d="M8011 6424 c0 -11 3 -14 6 -6 3 7 2 16 -1 19 -3 4 -6 -2 -5 -13z"/>
<path d="M8676 6284 c-5 -14 -4 -15 9 -4 17 14 19 20 6 20 -5 0 -12 -7 -15
-16z"/>
<path d="M3922 6220 c0 -14 2 -19 5 -12 2 6 2 18 0 25 -3 6 -5 1 -5 -13z"/>
<path d="M8873 6215 c-7 -8 -9 -16 -4 -19 5 -3 12 1 15 10 8 22 4 25 -11 9z"/>
<path d="M3890 6200 c6 -11 12 -20 14 -20 2 0 2 9 -1 20 -3 11 -9 20 -15 20
-5 0 -4 -9 2 -20z"/>
<path d="M3946 6192 c-2 -4 -1 -14 4 -22 7 -11 9 -9 7 8 -1 24 -3 26 -11 14z"/>
<path d="M8915 6169 c-4 -6 -5 -12 -2 -15 2 -3 7 2 10 11 7 17 1 20 -8 4z"/>
<path d="M8380 6040 c0 -5 5 -10 10 -10 6 0 10 5 10 10 0 6 -4 10 -10 10 -5 0
-10 -4 -10 -10z"/>
<path d="M8367 6014 c3 -8 -1 -22 -8 -31 -12 -15 -12 -16 5 -10 14 6 17 4 12
-8 -3 -8 -2 -15 3 -15 5 0 11 9 14 20 3 11 1 20 -5 20 -6 0 -8 6 -5 14 3 8 0
17 -8 20 -9 3 -12 0 -8 -10z"/>
<path d="M8701 5984 c0 -11 3 -14 6 -6 3 7 2 16 -1 19 -3 4 -6 -2 -5 -13z"/>
<path d="M8500 5144 c-553 -50 -1343 -343 -2009 -746 -34 -21 -68 -38 -75 -38
-6 0 -28 13 -47 29 -324 268 -706 489 -1024 593 -294 97 -553 142 -880 153
l-160 6 -259 -104 -259 -105 309 -5 c330 -5 487 -19 704 -63 401 -82 794 -244
1119 -462 127 -85 345 -252 386 -296 6 -6 27 -26 47 -44 l36 -34 113 85 c495
366 1072 634 1641 761 306 69 716 106 978 88 80 -5 146 -8 148 -7 1 1 -37 17
-85 35 -49 19 -155 60 -238 93 l-150 60 -125 2 c-69 2 -145 1 -170 -1z"/>
<path d="M8710 4570 c-702 -38 -1273 -181 -1848 -464 -104 -52 -249 -129 -321
-171 l-131 -77 -147 90 c-281 170 -635 334 -920 426 -369 119 -892 189 -1289
173 l-151 -7 -262 -105 c-293 -117 -318 -129 -251 -117 25 4 227 7 450 7 328
0 433 -3 550 -18 445 -55 820 -150 1186 -302 238 -99 459 -218 682 -367 73
-49 139 -91 147 -94 8 -3 40 14 72 39 94 72 308 210 446 287 353 197 879 378
1302 450 315 52 529 70 933 77 l333 6 -268 84 c-147 46 -288 86 -313 88 -25 1
-115 -1 -200 -5z"/>
<path d="M1443 3226 l-28 -24 -3 -465 -3 -465 26 -30 c30 -36 72 -48 119 -32
72 23 71 17 74 480 2 228 0 435 -3 459 -10 64 -49 101 -109 101 -33 0 -52 -6
-73 -24z"/>
<path d="M2150 3244 c-57 -11 -128 -38 -171 -65 -114 -72 -151 -221 -84 -335
50 -85 123 -121 360 -180 193 -48 235 -79 235 -171 0 -82 -128 -152 -253 -139
-87 9 -135 40 -177 117 -51 90 -81 119 -125 119 -27 0 -44 -8 -67 -30 -27 -27
-30 -36 -26 -73 14 -125 124 -231 278 -268 81 -20 252 -17 325 5 179 54 260
150 259 306 -1 170 -84 236 -389 311 -203 50 -245 76 -245 150 0 80 119 134
242 111 70 -13 100 -36 157 -122 53 -79 111 -91 168 -34 22 22 25 32 21 74 -6
59 -37 109 -96 151 -73 53 -143 72 -272 75 -63 1 -126 0 -140 -2z"/>
<path d="M3138 3235 c-165 -42 -251 -131 -252 -260 0 -80 17 -125 65 -174 58
-58 123 -86 303 -131 86 -22 170 -47 186 -55 44 -23 70 -62 70 -107 0 -55 -25
-92 -84 -124 -43 -23 -64 -28 -126 -29 -41 0 -87 3 -102 8 -42 11 -96 64 -125
121 -14 28 -37 63 -51 79 -49 52 -139 26 -157 -46 -16 -63 48 -179 129 -234
78 -53 172 -77 301 -77 120 0 194 16 279 62 162 88 208 297 94 427 -53 60
-135 97 -309 140 -220 54 -269 82 -269 153 0 100 188 157 310 93 21 -11 52
-43 78 -82 51 -77 66 -89 110 -89 24 0 42 9 64 30 28 28 30 36 26 80 -9 90
-87 170 -203 206 -70 23 -264 28 -337 9z"/>
<path d="M3968 3221 l-33 -29 -3 -449 c-3 -514 -4 -505 76 -533 40 -14 45 -13
80 5 20 11 42 31 49 45 18 35 19 897 1 935 -27 60 -117 73 -170 26z"/>
<path d="M4712 3230 c-99 -26 -161 -62 -227 -131 -66 -69 -100 -139 -120 -244
-19 -97 -19 -153 0 -249 17 -93 44 -154 95 -222 172 -228 632 -243 830 -28 92
102 130 208 130 367 0 116 -13 182 -51 263 -59 126 -161 205 -315 244 -101 26
-242 26 -342 0z m310 -168 c121 -53 190 -201 175 -375 -13 -146 -66 -235 -171
-287 -122 -61 -259 -40 -353 52 -137 135 -131 440 12 566 24 21 66 46 92 55
63 22 183 17 245 -11z"/>
<path d="M5683 3234 c-62 -32 -63 -36 -63 -514 0 -374 2 -436 16 -466 21 -43
68 -61 119 -44 68 23 69 28 75 380 l5 315 154 -220 c85 -121 184 -262 219
-313 84 -119 127 -159 185 -167 53 -8 90 7 121 48 21 28 21 38 21 476 0 482
-1 487 -52 510 -30 14 -78 14 -103 1 -42 -23 -45 -42 -50 -378 l-5 -324 -241
339 c-133 186 -249 345 -258 352 -26 21 -106 24 -143 5z"/>
<path d="M7099 3221 c-18 -18 -29 -40 -29 -57 0 -14 32 -149 71 -298 109 -417
148 -554 169 -596 40 -79 150 -92 209 -25 33 38 62 125 171 505 34 118 65 218
69 223 4 4 44 -122 90 -280 110 -382 119 -409 147 -443 60 -71 177 -61 218 19
26 50 236 842 236 889 0 82 -110 124 -169 64 -24 -24 -37 -66 -105 -342 -42
-173 -80 -323 -84 -334 -9 -21 -2 -42 -118 353 -78 266 -99 315 -144 338 -38
19 -110 16 -148 -7 -46 -28 -59 -64 -153 -392 -45 -156 -84 -289 -89 -297 -4
-8 -30 78 -64 220 -32 129 -66 271 -77 317 -37 152 -52 172 -129 172 -33 0
-48 -6 -71 -29z"/>
<path d="M8965 3240 c-237 -48 -378 -219 -392 -475 -8 -153 40 -312 121 -403
112 -124 332 -185 534 -148 214 38 349 165 398 373 19 80 14 250 -9 324 -57
176 -178 285 -362 324 -74 16 -224 18 -290 5z m272 -180 c102 -44 164 -144
178 -286 13 -130 -37 -284 -110 -340 -127 -96 -308 -89 -414 17 -116 115 -131
376 -30 523 27 40 90 85 142 102 60 20 170 12 234 -16z"/>
<path d="M10968 3221 l-33 -29 -3 -436 c-3 -489 -2 -494 62 -521 53 -22 634
-22 676 0 51 26 54 94 7 129 -27 20 -43 21 -278 24 l-249 3 0 389 c0 280 -3
396 -12 415 -27 60 -117 73 -170 26z"/>
<path d="M160 3217 c-50 -25 -50 -30 -48 -509 l3 -446 24 -26 c47 -50 139 -39
161 20 6 14 10 183 11 387 0 239 4 355 10 342 5 -11 52 -175 103 -364 55 -199
102 -354 114 -370 44 -59 142 -65 192 -11 30 32 43 75 156 495 36 138 70 254
75 260 5 5 9 -149 9 -359 0 -233 4 -374 10 -387 29 -53 116 -61 161 -13 l24
26 3 431 c2 238 0 447 -3 465 -10 55 -51 72 -172 72 -123 0 -148 -8 -167 -54
-8 -20 -52 -166 -98 -326 -46 -159 -85 -290 -88 -290 -3 0 -34 100 -70 223
-97 337 -119 406 -141 428 -17 17 -33 19 -131 19 -71 0 -122 -5 -138 -13z"/>
<path d="M9885 3219 c-50 -24 -50 -25 -53 -486 -3 -488 -3 -491 64 -519 50
-21 96 -11 128 27 26 30 26 31 26 220 0 219 -7 207 111 190 118 -16 134 -32
291 -271 91 -138 112 -160 166 -175 53 -15 122 32 122 83 0 61 -111 233 -209
324 -68 63 -76 78 -42 78 34 0 138 59 173 98 98 108 71 304 -52 386 -76 50
-121 56 -424 55 -165 0 -289 -4 -301 -10z m516 -149 c52 -14 90 -59 96 -113 7
-62 -16 -103 -75 -130 -41 -18 -67 -21 -207 -21 l-160 -1 -3 138 -3 137 158 0
c87 0 174 -5 194 -10z"/>
<path d="M11898 3201 l-33 -29 -3 -419 c-3 -471 -2 -485 58 -516 32 -16 59
-18 280 -14 222 3 251 5 305 25 134 49 223 144 268 286 32 102 31 301 -2 396
-55 159 -160 257 -309 289 -31 6 -153 11 -292 11 l-240 0 -32 -29z m535 -160
c103 -50 142 -147 135 -335 -5 -141 -26 -204 -88 -260 -57 -51 -96 -61 -255
-61 l-140 0 -3 344 -2 343 152 -4 c136 -3 158 -6 201 -27z"/>
<path d="M2476 1694 c-26 -25 -28 -51 -24 -276 3 -205 4 -215 29 -269 45 -96
117 -130 279 -131 120 -1 184 19 238 75 56 57 62 94 62 352 0 260 -1 265 -72
265 -60 0 -62 -8 -68 -259 -6 -242 -10 -266 -60 -303 -38 -28 -120 -34 -174
-14 -78 30 -80 39 -86 302 -5 210 -7 234 -24 253 -23 25 -77 28 -100 5z"/>
<path d="M3435 1700 c-62 -19 -140 -75 -172 -124 -113 -168 -67 -429 92 -517
104 -58 262 -59 366 -3 87 48 148 158 115 209 -35 54 -89 37 -126 -39 -26 -55
-58 -82 -114 -97 -96 -26 -184 13 -223 99 -23 48 -25 64 -21 145 3 74 9 100
28 135 35 61 90 92 166 92 67 0 106 -19 145 -70 64 -84 98 -100 132 -62 34 38
7 123 -53 170 -65 50 -112 66 -210 69 -52 1 -108 -2 -125 -7z"/>
<path d="M4201 1693 c-22 -19 -71 -125 -198 -428 -82 -196 -85 -217 -30 -243
47 -23 76 0 113 88 l31 75 147 3 146 3 34 -75 c21 -45 45 -81 61 -92 24 -16
29 -16 59 -1 62 29 61 31 -98 397 -67 153 -116 253 -132 268 -32 28 -102 30
-133 5z m126 -278 c24 -60 43 -113 43 -117 0 -5 -47 -8 -105 -8 -58 0 -105 3
-105 8 0 4 19 54 41 112 23 58 45 116 51 130 9 24 10 24 21 5 6 -11 30 -69 54
-130z"/>
<path d="M5294 1689 c-18 -19 -19 -42 -22 -303 -4 -308 2 -350 44 -366 34 -13
72 -3 90 25 12 19 14 72 12 330 -3 290 -4 307 -22 321 -29 21 -80 18 -102 -7z"/>
<path d="M5770 1693 c-162 -58 -248 -225 -210 -408 25 -121 92 -205 199 -246
81 -31 223 -31 305 1 126 48 197 161 199 315 1 159 -53 259 -170 317 -62 30
-76 33 -173 35 -77 2 -117 -2 -150 -14z m240 -113 c53 -27 89 -84 102 -162 31
-184 -81 -320 -242 -293 -112 19 -178 126 -167 269 7 85 44 150 102 183 53 30
149 31 205 3z"/>
<path d="M6424 1685 l-24 -24 2 -307 3 -307 26 -19 c30 -23 74 -16 89 13 6 10
11 106 12 213 1 107 5 201 8 209 3 9 44 -41 110 -136 189 -272 207 -295 246
-307 48 -16 89 1 103 42 14 39 15 577 1 612 -16 42 -97 48 -116 9 -5 -10 -11
-114 -14 -231 l-5 -213 -163 229 c-89 127 -169 233 -178 236 -34 13 -75 5
-100 -19z"/>
<path d="M8080 1690 c-17 -17 -21 -29 -16 -55 6 -32 202 -530 226 -576 16 -28
75 -52 111 -44 16 4 39 19 53 35 24 29 246 573 246 604 0 44 -74 72 -113 44
-15 -11 -52 -107 -172 -441 -15 -43 -31 -75 -36 -70 -5 5 -42 103 -84 218 -41
116 -85 230 -97 255 -20 40 -27 45 -60 48 -27 2 -43 -3 -58 -18z"/>
<path d="M9917 1692 c-15 -16 -17 -54 -17 -324 0 -297 1 -305 21 -324 19 -17
39 -19 241 -19 219 0 220 0 239 24 24 29 24 33 0 62 -19 23 -24 24 -190 27
l-171 4 0 264 c0 251 -1 265 -20 284 -26 26 -81 26 -103 2z"/>
<path d="M1039 1681 l-24 -19 -3 -284 c-2 -173 1 -295 7 -311 16 -42 65 -49
306 -45 161 2 216 6 228 17 24 19 22 68 -2 81 -12 6 -96 10 -205 10 l-186 0 0
100 0 100 166 0 c95 0 174 4 185 10 20 11 25 45 9 70 -7 12 -42 16 -185 18
l-175 3 0 85 0 84 181 0 c105 0 188 4 200 10 23 13 25 53 3 74 -13 14 -50 16
-249 16 -214 0 -235 -2 -256 -19z"/>
<path d="M1720 1682 l-25 -20 0 -296 c0 -361 -10 -337 147 -344 127 -5 264 11
316 37 56 29 116 99 138 162 25 72 25 214 1 286 -23 65 -84 135 -145 165 -43
21 -62 23 -227 26 -169 4 -182 2 -205 -16z m332 -102 c53 -15 94 -67 108 -137
25 -118 -9 -242 -77 -284 -29 -18 -55 -23 -139 -27 l-104 -5 0 232 0 231 88 0
c48 0 104 -5 124 -10z"/>
<path d="M4577 1682 c-22 -24 -21 -55 1 -75 15 -13 39 -17 115 -17 l97 0 0
-255 c0 -278 5 -307 54 -319 35 -9 75 9 86 39 6 15 10 138 10 281 l0 254 100
0 c87 0 103 3 120 20 11 11 20 27 20 35 0 8 -9 24 -20 35 -19 19 -33 20 -293
20 -253 0 -275 -1 -290 -18z"/>
<path d="M7450 1680 c-19 -19 -20 -33 -20 -323 0 -277 2 -305 18 -320 30 -28
65 -30 95 -7 27 21 27 23 27 140 l0 118 128 4 c76 3 139 10 157 18 88 40 125
95 125 184 0 68 -12 102 -53 144 -48 50 -104 62 -294 62 -150 0 -165 -2 -183
-20z m343 -103 c35 -23 50 -79 33 -122 -20 -46 -78 -67 -176 -63 l-75 3 -3
104 -3 103 99 -4 c71 -2 106 -8 125 -21z"/>
<path d="M8757 1682 c-22 -25 -21 -48 3 -72 17 -17 33 -20 120 -20 l100 0 0
-265 0 -266 25 -24 c29 -30 54 -31 88 -4 l27 20 2 267 3 267 101 5 c64 3 107
10 118 19 21 18 20 54 -2 74 -16 15 -52 17 -294 17 -254 0 -276 -1 -291 -18z"/>
<path d="M10336 1684 c-9 -8 -16 -26 -16 -39 0 -45 23 -55 131 -55 l99 0 0
-255 c0 -278 5 -307 54 -319 35 -9 75 9 86 39 6 15 10 138 10 281 l0 254 100
0 c87 0 103 3 121 21 14 14 18 27 14 42 -14 46 -24 47 -311 47 -234 0 -275 -2
-288 -16z"/>
<path d="M11050 1680 c-19 -19 -20 -33 -20 -314 0 -275 1 -295 19 -317 19 -24
22 -24 188 -23 188 0 241 11 305 64 83 68 126 230 98 365 -17 80 -39 123 -93
172 -66 61 -117 73 -314 73 -150 0 -165 -2 -183 -20z m369 -115 c57 -33 76
-84 76 -200 0 -88 -3 -105 -25 -144 -39 -69 -74 -85 -194 -86 l-101 0 -3 229
-2 228 107 -3 c85 -3 115 -8 142 -24z"/>
<path d="M9350 1128 c-55 -59 15 -142 88 -104 33 17 48 56 32 86 -23 44 -87
53 -120 18z"/>
<path d="M11731 1124 c-26 -33 -26 -55 -2 -85 39 -48 131 -18 131 43 0 10 -11
30 -25 43 -33 34 -77 33 -104 -1z"/>
<path d="M6823 660 c-64 -26 -134 -100 -152 -161 -44 -146 12 -296 134 -362
33 -18 57 -22 135 -22 84 0 101 3 148 28 187 99 188 400 1 501 -73 40 -188 47
-266 16z m214 -57 c44 -20 90 -74 102 -120 19 -66 14 -154 -11 -203 -36 -70
-86 -103 -162 -108 -153 -10 -230 65 -229 223 0 106 29 167 98 203 63 33 137
35 202 5z"/>
<path d="M1491 608 c2 -93 10 -122 36 -126 19 -3 22 4 33 67 17 101 13 115
-32 119 l-38 3 1 -63z"/>
<path d="M1620 639 c0 -18 5 -60 12 -95 10 -56 14 -64 33 -64 26 0 35 35 35
133 l0 57 -40 0 c-38 0 -40 -1 -40 -31z"/>
<path d="M1766 658 c4 -6 56 -78 115 -160 l108 -148 0 -103 c0 -56 0 -108 1
-114 0 -8 14 -13 35 -13 l35 0 0 116 0 117 109 146 c59 80 111 152 115 159 5
9 -4 12 -33 12 -40 0 -40 0 -132 -132 -79 -111 -95 -128 -104 -114 -5 10 -45
69 -88 132 l-78 114 -45 0 c-32 0 -43 -3 -38 -12z"/>
<path d="M3770 395 l0 -275 35 0 35 0 0 125 0 124 143 3 142 3 0 25 0 25 -140
5 -140 5 -3 87 -3 88 163 2 163 3 3 28 3 27 -200 0 -201 0 0 -275z"/>
<path d="M8320 395 l0 -275 40 0 40 0 2 233 3 232 84 -232 85 -233 36 0 36 0
84 224 c46 124 87 223 92 220 4 -3 8 -104 8 -225 l0 -219 35 0 35 0 0 275 0
275 -54 0 -53 0 -57 -152 c-31 -84 -69 -189 -85 -233 -16 -44 -33 -78 -37 -76
-5 2 -28 56 -50 120 -23 64 -59 166 -81 226 l-40 110 -61 3 -62 3 0 -276z"/>
<path d="M9027 663 c-4 -3 -7 -19 -7 -35 0 -25 3 -28 35 -28 33 0 35 2 35 35
0 32 -3 35 -28 35 -16 0 -32 -3 -35 -7z"/>
<path d="M10060 635 c0 -35 1 -36 33 -33 28 3 32 6 32 33 0 27 -4 30 -32 33
-32 3 -33 2 -33 -33z"/>
<path d="M11170 632 c0 -21 5 -64 11 -95 9 -43 16 -57 29 -57 24 0 30 19 37
112 l6 78 -42 0 c-41 0 -41 0 -41 -38z"/>
<path d="M11311 608 c2 -92 10 -122 35 -126 19 -3 23 4 33 61 6 35 11 78 11
95 0 31 -2 32 -40 32 l-40 0 1 -62z"/>
<path d="M4785 638 c-29 -17 -35 -28 -35 -75 0 -39 -2 -43 -25 -43 -20 0 -25
-5 -25 -25 0 -20 5 -25 24 -25 l23 0 5 -156 c4 -141 7 -157 26 -176 15 -16 34
-22 69 -22 45 -1 48 1 51 27 3 24 0 27 -27 27 -20 0 -34 7 -41 19 -5 11 -10
78 -10 150 l0 130 38 3 c29 2 37 7 37 23 0 16 -8 21 -37 23 l-38 3 0 65 c0 67
-2 71 -35 52z"/>
<path d="M2414 521 c-94 -24 -145 -95 -145 -203 0 -102 29 -153 106 -189 77
-36 199 -17 248 39 11 11 25 38 33 59 26 75 11 186 -33 235 -42 47 -143 75
-209 59z m123 -67 c85 -54 80 -234 -8 -279 -46 -24 -112 -15 -149 20 -54 51
-60 170 -12 234 35 48 114 60 169 25z"/>
<path d="M3365 521 c-11 -5 -29 -18 -39 -30 -25 -28 -36 -27 -36 4 0 20 -5 25
-24 25 -13 0 -27 -7 -30 -16 -8 -20 -8 -348 0 -368 4 -10 18 -16 35 -16 l29 0
0 118 c0 64 5 134 11 155 13 47 47 71 95 65 30 -4 38 0 47 19 7 15 7 27 1 33
-14 14 -66 21 -89 11z"/>
<path d="M5575 521 c-11 -5 -29 -19 -40 -31 l-20 -22 -5 24 c-4 16 -14 24 -33
26 l-27 3 0 -200 0 -201 30 0 30 0 0 105 c0 187 25 242 106 233 30 -4 38 0 47
19 7 15 7 27 1 33 -14 14 -66 21 -89 11z"/>
<path d="M5875 525 c-5 -2 -22 -6 -37 -9 -35 -8 -94 -59 -115 -100 -26 -49
-22 -162 7 -214 46 -82 179 -117 276 -73 45 20 84 63 84 92 0 28 -56 26 -70
-2 -6 -11 -26 -29 -43 -39 -77 -47 -180 -3 -194 84 l-6 36 162 0 161 0 0 35
c0 67 -44 141 -100 170 -26 14 -108 27 -125 20z m102 -71 c28 -17 56 -71 49
-90 -4 -11 -31 -14 -126 -14 -135 0 -139 3 -100 68 36 59 117 75 177 36z"/>
<path d="M7919 515 c-15 -8 -29 -21 -33 -30 -9 -24 -26 -18 -26 10 0 21 -5 25
-30 25 l-30 0 0 -200 0 -200 34 0 35 0 3 144 c3 138 4 146 28 171 21 23 31 26
67 22 36 -4 42 -1 52 20 14 32 16 29 -20 42 -40 14 -48 13 -80 -4z"/>
<path d="M9290 519 c-55 -17 -90 -56 -90 -102 0 -73 23 -91 169 -128 102 -26
124 -56 76 -104 -46 -47 -171 -24 -190 34 -4 15 -15 21 -36 21 -25 0 -29 -4
-29 -26 0 -34 57 -89 100 -98 148 -29 265 36 246 137 -9 48 -40 68 -156 102
-103 29 -120 38 -120 65 0 49 102 76 158 41 17 -12 32 -28 32 -37 0 -13 6 -15
32 -10 17 3 34 9 37 12 10 10 -24 58 -54 76 -38 22 -129 31 -175 17z"/>
<path d="M9705 516 c-55 -21 -85 -58 -85 -105 0 -57 33 -85 133 -110 107 -28
131 -41 135 -73 10 -83 -170 -93 -207 -11 -11 24 -35 29 -61 13 -12 -8 -12
-14 3 -45 23 -48 81 -75 162 -75 108 0 175 50 175 130 0 53 -40 82 -158 115
-81 22 -106 32 -112 49 -13 33 11 60 61 68 56 10 102 -5 119 -38 11 -20 19
-24 39 -19 36 9 37 13 21 43 -33 58 -146 87 -225 58z"/>
<path d="M10351 516 c-91 -30 -137 -109 -128 -221 3 -47 12 -76 30 -104 81
-122 306 -101 356 32 14 36 14 148 0 184 -13 34 -55 80 -90 98 -41 22 -119 26
-168 11z m146 -63 c49 -32 69 -145 39 -218 -29 -68 -118 -95 -184 -55 -41 25
-62 73 -62 143 0 120 113 191 207 130z"/>
<path d="M10875 521 c-34 -9 -75 -32 -75 -43 0 -5 -4 -8 -10 -8 -5 0 -10 11
-10 25 0 21 -5 25 -30 25 l-30 0 0 -200 0 -200 35 0 35 0 0 135 c0 149 9 182
55 203 39 18 99 15 126 -7 23 -18 24 -25 27 -175 l3 -156 36 0 35 0 -4 157
c-4 175 -14 211 -65 231 -41 16 -94 22 -128 13z"/>
<path d="M2760 368 c0 -126 3 -159 18 -188 39 -80 177 -95 250 -28 l22 21 0
-26 c0 -23 4 -27 30 -27 l30 0 0 201 0 200 -32 -3 -33 -3 -5 -148 c-5 -147 -5
-149 -33 -172 -55 -48 -136 -40 -164 15 -8 17 -13 73 -13 168 l0 142 -35 0
-35 0 0 -152z"/>
<path d="M4270 360 c0 -102 4 -168 12 -185 34 -74 192 -87 247 -21 19 23 31
20 31 -9 0 -21 5 -25 30 -25 l30 0 0 200 0 200 -35 0 -35 0 0 -130 c0 -153
-10 -188 -63 -213 -19 -9 -45 -17 -57 -17 -29 0 -76 26 -84 45 -3 9 -6 77 -6
150 0 73 -3 140 -6 149 -4 10 -18 16 -35 16 l-29 0 0 -160z"/>
<path d="M4971 373 c0 -162 9 -205 50 -235 53 -40 157 -36 209 8 l30 26 0 -26
c0 -22 4 -26 30 -26 l30 0 0 200 0 200 -29 0 -29 0 -4 -138 c-3 -112 -7 -144
-21 -166 -38 -57 -132 -70 -173 -25 -17 18 -19 41 -22 175 l-4 154 -34 0 -34
0 1 -147z"/>
<path d="M7330 365 c0 -185 9 -214 71 -239 68 -27 153 -15 188 27 19 24 31 21
31 -8 0 -21 5 -25 30 -25 l30 0 0 200 0 200 -35 0 -35 0 0 -119 c0 -65 -3
-132 -6 -150 -13 -66 -92 -107 -154 -81 -17 7 -34 18 -38 24 -4 6 -9 81 -12
166 l-5 155 -32 3 -33 3 0 -156z"/>
<path d="M9024 507 c-2 -7 -3 -96 -2 -197 l3 -185 33 -3 32 -3 0 200 0 201
-30 0 c-17 0 -33 -6 -36 -13z"/>
<path d="M10060 321 l0 -201 35 0 35 0 -2 198 -3 197 -32 3 -33 3 0 -200z"/>
<path d="M6220 156 c0 -26 5 -35 21 -39 18 -5 20 -11 15 -34 -4 -15 -14 -34
-24 -41 -12 -9 -13 -15 -4 -24 10 -10 18 -6 39 15 23 22 28 37 31 92 l4 65
-41 0 c-40 0 -41 -1 -41 -34z"/>
</g>
</svg>
